<svg xmlns="http://www.w3.org/2000/svg" xmlns:xlink="http://www.w3.org/1999/xlink" viewBox="0 0 900 900"><defs><clipPath id="clip-path" transform="translate(114.59)"><circle id="_Clipping_Path_" data-name="&lt;Clipping Path&gt;" cx="382.42" cy="271.59" r="13.07" style="fill:none"/></clipPath><clipPath id="clip-path-2" transform="translate(114.59)"><circle id="_Clipping_Path_2" data-name="&lt;Clipping Path&gt;" cx="466.58" cy="521.44" r="13.07" style="fill:none"/></clipPath><clipPath id="clip-path-3" transform="translate(114.59)"><circle id="_Clipping_Path_3" data-name="&lt;Clipping Path&gt;" cx="178.15" cy="496.87" r="13.07" style="fill:none"/></clipPath></defs><title>test13</title><g id="Layer_1" data-name="Layer 1"><g id="_Group_" data-name="&lt;Group&gt;"><polygon id="_Path_" data-name="&lt;Path&gt;" points="0 0 0 267.85 267.85 0 0 0" style="fill:#66d7ff"/><polygon id="_Path_2" data-name="&lt;Path&gt;" points="900 699.56 699.56 900 900 900 900 699.56" style="fill:#66d7ff"/><polygon id="_Path_3" data-name="&lt;Path&gt;" points="267.85 0 0 267.85 0 606.55 606.55 0 267.85 0" style="fill:#85ddff"/><polygon id="_Path_4" data-name="&lt;Path&gt;" points="900 0 606.55 0 0 606.55 0 900 360.86 900 900 360.86 900 0" style="fill:#66d7ff"/><polygon id="_Path_5" data-name="&lt;Path&gt;" points="900 360.86 360.86 900 699.56 900 900 699.56 900 360.86" style="fill:#85ddff"/></g></g><g id="Layer_2" data-name="Layer 2"><path id="_Path_6" data-name="&lt;Path&gt;" d="M464.31,341.92h-278a10.41,10.41,0,0,0-10.41,10.4V433a14.65,14.65,0,0,0,14.65,14.65H464.31a10.4,10.4,0,0,0,10.4-10.4V352.32A10.4,10.4,0,0,0,464.31,341.92Z" transform="translate(114.59)" style="fill:#283659"/><path id="_Path_7" data-name="&lt;Path&gt;" d="M421.45,442.49l38.75,42.73a.89.89,0,0,0,1.55-.59V442.49Z" transform="translate(114.59)" style="fill:#283659"/><path id="_Path_8" data-name="&lt;Path&gt;" d="M470.53,336.54h-278a10.4,10.4,0,0,0-10.4,10.4v84.94a10.4,10.4,0,0,0,10.4,10.4H432.36l34.05,37.56a.89.89,0,0,0,1.55-.59v-37h2.57a10.4,10.4,0,0,0,10.4-10.4V346.94A10.4,10.4,0,0,0,470.53,336.54Z" transform="translate(114.59)" style="fill:#ff4c3e"/><g id="_Group_2" data-name="&lt;Group&gt;"><text transform="translate(324.14 406.63)" style="font-size:44.602596282958984px;fill:#fff;font-family:GoogleSans-Regular, Google Sans">SUBSCRIBE</text></g><path d="M406.08,449.31l-23.69-16-.95-.64-.29-.2a1,1,0,0,0-1.59.76l-2.81,30a1,1,0,0,0,1.23,1.1,1.25,1.25,0,0,0,.3-.12l1.31-.95,7.43-5.38,6.52,13.8a1,1,0,0,0,1.37.49l6.55-3.09a1,1,0,0,0,.49-1.37l-6.49-13.73,10.4-2.8A1,1,0,0,0,406.08,449.31Z" transform="translate(114.59)" style="fill:#283659"/><path d="M408.7,445.35l-23.69-16-.94-.65-.29-.19a1,1,0,0,0-1.6.75l-2.8,30a1,1,0,0,0,1.22,1.09,1.15,1.15,0,0,0,.31-.11l1.31-.95,7.42-5.38,6.52,13.8a1,1,0,0,0,1.37.49l6.55-3.09a1,1,0,0,0,.49-1.37L398.08,450l10.41-2.79A1,1,0,0,0,408.7,445.35Z" transform="translate(114.59)" style="fill:#fff"/><polygon id="_Path_9" data-name="&lt;Path&gt;" points="394.19 257.5 396.2 261.19 399.89 263.21 396.2 265.23 394.19 268.92 392.17 265.23 388.48 263.21 392.17 261.19 394.19 257.5" style="fill:#fff"/><polygon id="_Path_10" data-name="&lt;Path&gt;" points="468.01 220.47 470.03 224.16 473.72 226.18 470.03 228.2 468.01 231.89 465.99 228.2 462.3 226.18 465.99 224.16 468.01 220.47" style="fill:#fff"/><polygon id="_Path_11" data-name="&lt;Path&gt;" points="427.28 204.64 428.53 206.93 430.82 208.18 428.53 209.43 427.28 211.71 426.03 209.43 423.75 208.18 426.03 206.93 427.28 204.64" style="fill:#fff"/><polygon id="_Path_12" data-name="&lt;Path&gt;" points="277.76 460.46 279.01 462.75 281.3 464 279.01 465.25 277.76 467.54 276.51 465.25 274.23 464 276.51 462.75 277.76 460.46" style="fill:#fff"/><polygon id="_Path_13" data-name="&lt;Path&gt;" points="609.54 475.84 611.55 479.53 615.25 481.55 611.55 483.57 609.54 487.26 607.52 483.57 603.83 481.55 607.52 479.53 609.54 475.84" style="fill:#fff"/><polygon id="_Path_14" data-name="&lt;Path&gt;" points="387.74 523.39 388.94 525.58 391.13 526.78 388.94 527.98 387.74 530.17 386.54 527.98 384.34 526.78 386.54 525.58 387.74 523.39" style="fill:#fff"/><polygon id="_Path_15" data-name="&lt;Path&gt;" points="480.26 485.35 482.28 489.04 485.97 491.06 482.28 493.07 480.26 496.76 478.24 493.07 474.55 491.06 478.24 489.04 480.26 485.35" style="fill:#fff"/><polygon id="_Path_16" data-name="&lt;Path&gt;" points="332 467.34 334.02 471.03 337.71 473.04 334.02 475.06 332 478.75 329.98 475.06 326.29 473.04 329.98 471.03 332 467.34" style="fill:#fff"/><polygon id="_Path_17" data-name="&lt;Path&gt;" points="595.52 270.56 597.53 274.25 601.23 276.27 597.53 278.29 595.52 281.98 593.5 278.29 589.81 276.27 593.5 274.25 595.52 270.56" style="fill:#fff"/><polygon id="_Path_18" data-name="&lt;Path&gt;" points="292.44 296.4 293.91 299.08 296.59 300.55 293.91 302.01 292.44 304.69 290.98 302.01 288.3 300.55 290.98 299.08 292.44 296.4" style="fill:#fff"/><polygon id="_Path_19" data-name="&lt;Path&gt;" points="268.14 257.12 270.29 261.06 274.23 263.21 270.29 265.36 268.14 269.29 265.99 265.36 262.06 263.21 265.99 261.06 268.14 257.12" style="fill:#fff"/><polygon id="_Path_20" data-name="&lt;Path&gt;" points="624.37 343.92 626.52 347.85 630.46 350 626.52 352.15 624.37 356.09 622.22 352.15 618.28 350 622.22 347.85 624.37 343.92" style="fill:#fff"/><polygon id="_Path_21" data-name="&lt;Path&gt;" points="249.38 343.02 251.53 346.95 255.47 349.1 251.53 351.25 249.38 355.19 247.23 351.25 243.3 349.1 247.23 346.95 249.38 343.02" style="fill:#fff"/><g id="_Group_3" data-name="&lt;Group&gt;"><path d="M213.44,224.75h5.15v2.86h-5.15v5.16h-2.87v-5.16h-5.15v-2.86h5.15v-5.16h2.87Z" transform="translate(114.59)" style="fill:#fff"/></g><g id="_Group_4" data-name="&lt;Group&gt;"><path d="M417.15,517.19h5.16v2.87h-5.16v5.15h-2.86v-5.15h-5.16v-2.87h5.16V512h2.86Z" transform="translate(114.59)" style="fill:#fff"/></g><g id="_Group_5" data-name="&lt;Group&gt;"><path d="M506,430.84h5.15v2.86H506v5.16h-2.87V433.7H498v-2.86h5.15v-5.16H506Z" transform="translate(114.59)" style="fill:#fff"/></g><g id="_Group_6" data-name="&lt;Group&gt;"><path d="M148.9,444.22h5.16v2.86H148.9v5.16H146v-5.16h-5.16v-2.86H146v-5.16h2.86Z" transform="translate(114.59)" style="fill:#fff"/></g><g id="_Group_7" data-name="&lt;Group&gt;"><path d="M428.25,226.74h5.16v2.87h-5.16v5.15h-2.86v-5.15h-5.16v-2.87h5.16v-5.15h2.86Z" transform="translate(114.59)" style="fill:#fff"/></g><g id="_Group_8" data-name="&lt;Group&gt;"><path d="M271.68,227.56h2.21v1.23h-2.21V231h-1.22v-2.2h-2.2v-1.23h2.2v-2.2h1.22Z" transform="translate(114.59)" style="fill:#fff"/></g><g id="_Group_9" data-name="&lt;Group&gt;"><path d="M358.7,304.08h2.21v1.23H358.7v2.2h-1.22v-2.2h-2.21v-1.23h2.21v-2.2h1.22Z" transform="translate(114.59)" style="fill:#fff"/></g><g id="_Group_10" data-name="&lt;Group&gt;"><path d="M206,520.83h2.2v1.22H206v2.21H204.8v-2.21h-2.2v-1.22h2.2v-2.21H206Z" transform="translate(114.59)" style="fill:#fff"/></g><g id="_Group_11" data-name="&lt;Group&gt;"><path d="M319.05,543.45h2.21v1.22h-2.21v2.21h-1.22v-2.21h-2.2v-1.22h2.2v-2.21h1.22Z" transform="translate(114.59)" style="fill:#fff"/></g><g id="_Group_12" data-name="&lt;Group&gt;"><path d="M148.08,310.5h2.21v1.22h-2.21v2.21h-1.22v-2.21h-2.21V310.5h2.21v-2.21h1.22Z" transform="translate(114.59)" style="fill:#fff"/></g><g id="_Group_13" data-name="&lt;Group&gt;"><path d="M154.67,387.44h2.2v1.22h-2.2v2.21h-1.23v-2.21h-2.2v-1.22h2.2v-2.2h1.23Z" transform="translate(114.59)" style="fill:#fff"/></g><g id="_Group_14" data-name="&lt;Group&gt;"><path d="M484.36,237h2.2v1.23h-2.2v2.2h-1.23v-2.2h-2.2V237h2.2v-2.2h1.23Z" transform="translate(114.59)" style="fill:#fff"/></g><g id="_Group_15" data-name="&lt;Group&gt;"><path d="M524.72,387.44h2.2v1.22h-2.2v2.21h-1.23v-2.21h-2.2v-1.22h2.2v-2.2h1.23Z" transform="translate(114.59)" style="fill:#fff"/></g><g id="_Group_16" data-name="&lt;Group&gt;"><path d="M255.47,490.75h5.15v2.87h-5.15v5.15H252.6v-5.15h-5.15v-2.87h5.15V485.6h2.87Z" transform="translate(114.59)" style="fill:#fff"/></g><g id="_Clip_Group_" data-name="&lt;Clip Group&gt;"><g style="clip-path:url(#clip-path)"><circle id="_Path_22" data-name="&lt;Path&gt;" cx="497.01" cy="271.59" r="13.07" style="fill:#fff"/><g id="_Group_17" data-name="&lt;Group&gt;"><path id="_Path_23" data-name="&lt;Path&gt;" d="M376.86,269.32a5.57,5.57,0,1,1,5.56,5.56A5.56,5.56,0,0,1,376.86,269.32Z" transform="translate(114.59)" style="fill:#283659"/><path id="_Path_24" data-name="&lt;Path&gt;" d="M382.42,273.49s-9.4,1.1-9.4,13.29h18.81C391.83,274.59,382.42,273.49,382.42,273.49Z" transform="translate(114.59)" style="fill:#283659"/></g></g></g><g id="_Clip_Group_2" data-name="&lt;Clip Group&gt;"><g style="clip-path:url(#clip-path-2)"><circle id="_Path_25" data-name="&lt;Path&gt;" cx="581.17" cy="521.44" r="13.07" style="fill:#fff"/><g id="_Group_18" data-name="&lt;Group&gt;"><path id="_Path_26" data-name="&lt;Path&gt;" d="M461,519.17a5.57,5.57,0,1,1,5.57,5.57A5.56,5.56,0,0,1,461,519.17Z" transform="translate(114.59)" style="fill:#ff4c3e"/><path id="_Path_27" data-name="&lt;Path&gt;" d="M466.58,523.34s-9.41,1.1-9.41,13.3H476C476,524.44,466.58,523.34,466.58,523.34Z" transform="translate(114.59)" style="fill:#ff4c3e"/></g></g></g><g id="_Clip_Group_3" data-name="&lt;Clip Group&gt;"><g style="clip-path:url(#clip-path-3)"><circle id="_Path_28" data-name="&lt;Path&gt;" cx="292.74" cy="496.87" r="13.07" style="fill:#fff"/><g id="_Group_19" data-name="&lt;Group&gt;"><path id="_Path_29" data-name="&lt;Path&gt;" d="M172.59,494.6a5.57,5.57,0,1,1,5.56,5.56A5.56,5.56,0,0,1,172.59,494.6Z" transform="translate(114.59)" style="fill:#283659"/><path id="_Path_30" data-name="&lt;Path&gt;" d="M178.15,498.77s-9.4,1.1-9.4,13.29h18.81C187.56,499.87,178.15,498.77,178.15,498.77Z" transform="translate(114.59)" style="fill:#283659"/></g></g></g><g id="_Group_20" data-name="&lt;Group&gt;"><rect id="_Rectangle_" data-name="&lt;Rectangle&gt;" x="323.87" y="275.72" width="27.66" height="17.86" rx="1.88" ry="1.88" style="fill:#283659"/><path id="_Path_31" data-name="&lt;Path&gt;" d="M227.31,284.34a.37.37,0,0,1,0,.63l-4,2.31-4,2.31a.36.36,0,0,1-.55-.31V280a.37.37,0,0,1,.55-.32l4,2.31Z" transform="translate(114.59)" style="fill:#fff"/></g><g id="_Group_21" data-name="&lt;Group&gt;"><rect id="_Rectangle_2" data-name="&lt;Rectangle&gt;" x="412.52" y="475.83" width="30.27" height="19.54" rx="2.06" ry="2.06" style="fill:#ff4c3e"/><path id="_Path_32" data-name="&lt;Path&gt;" d="M307.34,485.94a.4.4,0,0,1,0-.69l4.39-2.53,4.38-2.53a.4.4,0,0,1,.6.35v10.12a.4.4,0,0,1-.6.34l-4.38-2.53Z" transform="translate(114.59)" style="fill:#fff"/></g><g id="_Group_22" data-name="&lt;Group&gt;"><rect id="_Rectangle_3" data-name="&lt;Rectangle&gt;" x="559.37" y="299.12" width="30.27" height="19.54" rx="2.06" ry="2.06" style="fill:#ff4c3e"/><path id="_Path_33" data-name="&lt;Path&gt;" d="M454.19,309.23a.4.4,0,0,1,0-.69l4.38-2.53,4.39-2.53a.4.4,0,0,1,.59.35V314a.39.39,0,0,1-.59.34l-4.39-2.53Z" transform="translate(114.59)" style="fill:#fff"/></g><g id="_Group_23" data-name="&lt;Group&gt;"><rect id="_Rectangle_4" data-name="&lt;Rectangle&gt;" x="342.96" y="539.75" width="30.27" height="19.54" rx="2.06" ry="2.06" style="fill:#ff4c3e"/><path id="_Path_34" data-name="&lt;Path&gt;" d="M237.79,549.86a.4.4,0,0,1,0-.69l4.38-2.53,4.38-2.53a.4.4,0,0,1,.6.35v10.12a.39.39,0,0,1-.6.34l-4.38-2.53Z" transform="translate(114.59)" style="fill:#fff"/></g><g id="_Group_24" data-name="&lt;Group&gt;"><g id="_Group_25" data-name="&lt;Group&gt;"><g id="_Group_26" data-name="&lt;Group&gt;"><rect id="_Rectangle_5" data-name="&lt;Rectangle&gt;" x="394.19" y="299.12" width="23.63" height="14.78" rx="2.82" ry="2.82" style="fill:#fff"/><path id="_Path_35" data-name="&lt;Path&gt;" d="M284,313.14v5.08a.5.5,0,0,0,.82.38l6.57-5.46Z" transform="translate(114.59)" style="fill:#fff"/></g><circle id="_Path_36" data-name="&lt;Path&gt;" cx="406.03" cy="306.51" r="1.14" style="fill:#ff4c3e"/><circle id="_Path_37" data-name="&lt;Path&gt;" cx="400.79" cy="306.51" r="1.14" style="fill:#ff4c3e"/><circle id="_Path_38" data-name="&lt;Path&gt;" cx="411.27" cy="306.51" r="1.14" style="fill:#ff4c3e"/></g><g id="_Group_27" data-name="&lt;Group&gt;"><g id="_Group_28" data-name="&lt;Group&gt;"><rect id="_Rectangle_6" data-name="&lt;Rectangle&gt;" x="297.18" y="294.3" width="23.63" height="14.78" rx="2.82" ry="2.82" transform="translate(732.58 603.37) rotate(180)" style="fill:#ff4c3e"/><path id="_Path_39" data-name="&lt;Path&gt;" d="M316.39,308.32v5.08a.49.49,0,0,1-.81.38L309,308.32Z" transform="translate(114.59)" style="fill:#ff4c3e"/></g><circle id="_Path_40" data-name="&lt;Path&gt;" cx="423.55" cy="301.69" r="1.14" style="fill:#fff"/><circle id="_Path_41" data-name="&lt;Path&gt;" cx="428.79" cy="301.69" r="1.14" style="fill:#fff"/><circle id="_Path_42" data-name="&lt;Path&gt;" cx="418.31" cy="301.69" r="1.14" style="fill:#fff"/></g></g><g id="_Group_29" data-name="&lt;Group&gt;"><g id="_Group_30" data-name="&lt;Group&gt;"><g id="_Group_31" data-name="&lt;Group&gt;"><rect id="_Rectangle_7" data-name="&lt;Rectangle&gt;" x="462.03" y="539.09" width="23.63" height="14.78" rx="2.82" ry="2.82" style="fill:#fff"/><path id="_Path_43" data-name="&lt;Path&gt;" d="M351.87,553.12v5.08a.49.49,0,0,0,.81.38l6.58-5.46Z" transform="translate(114.59)" style="fill:#fff"/></g><path id="_Path_44" data-name="&lt;Path&gt;" d="M358.16,546.48a1.14,1.14,0,1,1,1.13,1.14A1.13,1.13,0,0,1,358.16,546.48Z" transform="translate(114.59)" style="fill:#ff4c3e"/><path id="_Path_45" data-name="&lt;Path&gt;" d="M352.92,546.48a1.14,1.14,0,1,1,1.14,1.14A1.13,1.13,0,0,1,352.92,546.48Z" transform="translate(114.59)" style="fill:#ff4c3e"/><path id="_Path_46" data-name="&lt;Path&gt;" d="M363.4,546.48a1.14,1.14,0,0,1,2.27,0,1.14,1.14,0,1,1-2.27,0Z" transform="translate(114.59)" style="fill:#ff4c3e"/></g><g id="_Group_32" data-name="&lt;Group&gt;"><g id="_Group_33" data-name="&lt;Group&gt;"><rect id="_Rectangle_8" data-name="&lt;Rectangle&gt;" x="365.03" y="534.27" width="23.63" height="14.78" rx="2.82" ry="2.82" transform="translate(868.28 1083.32) rotate(180)" style="fill:#283659"/><path id="_Path_47" data-name="&lt;Path&gt;" d="M384.24,548.3v5.08a.49.49,0,0,1-.81.38l-6.58-5.46Z" transform="translate(114.59)" style="fill:#283659"/></g><circle id="_Path_48" data-name="&lt;Path&gt;" cx="491.4" cy="541.66" r="1.14" style="fill:#fff"/><circle id="_Path_49" data-name="&lt;Path&gt;" cx="496.64" cy="541.66" r="1.14" style="fill:#fff"/><circle id="_Path_50" data-name="&lt;Path&gt;" cx="486.16" cy="541.66" r="1.14" style="fill:#fff"/></g></g></g></svg>